<?xml version="1.0" encoding="iso-8859-1"?>
<!-- Generator: Adobe Illustrator 19.0.0, SVG Export Plug-In . SVG Version: 6.00 Build 0)  -->
<svg version="1.1" id="Capa_1" xmlns="http://www.w3.org/2000/svg" xmlns:xlink="http://www.w3.org/1999/xlink" x="0px" y="0px"
	 viewBox="0 0 480 480" style="enable-background:new 0 0 480 480;" xml:space="preserve">
<path style="fill:#65CECC;" d="M344,471.99h128v-231.2c0-27.2-25.6-48.8-56.8-48.8h-62.4c-12,0-24,3.2-34.4,10.4"/>
<g>
	<path style="fill:#E9CD4B;" d="M160,201.59c-10.4-6.4-21.6-9.6-33.6-9.6H64c-31.2,0-56.8,21.6-56.8,48.8v231.2h128"/>
	<circle style="fill:#E9CD4B;" cx="96" cy="119.99" r="72"/>
</g>
<circle style="fill:#65CECC;" cx="384" cy="119.99" r="72"/>
<g>
	<path style="fill:#DE2F55;" d="M208,183.99h62.4c40.8,0,74.4,32.8,74.4,74.4v213.6l0,0H136l0,0v-216
		C136,215.99,168,183.99,208,183.99z"/>
	<circle style="fill:#DE2F55;" cx="244" cy="95.99" r="88"/>
</g>
<path d="M386.4,111.99c-8.8-3.2-10.4-4-10.4-8c0-4.8,3.2-8,8-8s8,3.2,8,8h16c0-10.4-6.4-19.2-16-22.4v-9.6h-16v9.6
	c-9.6,3.2-16,12-16,22.4c0,16.8,13.6,20.8,21.6,24c8.8,3.2,10.4,4,10.4,8c0,4.8-3.2,8-8,8s-8-3.2-8-8h-16c0,10.4,6.4,19.2,16,22.4
	v9.6h16v-9.6c9.6-3.2,16-12,16-22.4C408,119.19,394.4,115.19,386.4,111.99z"/>
<path d="M98.4,111.99c-8.8-3.2-10.4-4-10.4-8c0-4.8,3.2-8,8-8s8,3.2,8,8h16c0-10.4-6.4-19.2-16-22.4v-9.6H88v9.6
	c-9.6,3.2-16,12-16,22.4c0,16.8,13.6,20.8,21.6,24c8.8,3.2,10.4,4,10.4,8c0,4.8-3.2,8-8,8s-8-3.2-8-8H72c0,10.4,6.4,19.2,16,22.4
	v9.6h16v-9.6c9.6-3.2,16-12,16-22.4C120,119.19,106.4,115.19,98.4,111.99z"/>
<path d="M429.6,185.59c36-24.8,44.8-75.2,20-111.2s-75.2-44.8-111.2-20c-2.4,1.6-4,3.2-6.4,4.8c-20-48.8-76-72-124.8-52
	c-25.6,10.4-44.8,31.2-53.6,56.8c-15.2-15.2-36-24-57.6-24c-44,0-80,36-80,80c0,26.4,12.8,50.4,34.4,65.6
	c-28.8,5.6-50.4,28-50.4,55.2v231.2c0,4.8,3.2,8,8,8l0,0h464c4.8,0,8-3.2,8-8l0,0v-231.2C480,213.59,458.4,191.19,429.6,185.59z
	 M384,55.99c35.2,0,64,28,64,64c0,35.2-28,64-64,64c-25.6,0-48.8-14.4-58.4-37.6c12.8-20.8,17.6-46.4,12-70.4
	C349.6,63.19,366.4,55.99,384,55.99z M319.2,192.79c-8-6.4-17.6-10.4-27.2-13.6c8.8-4.8,16.8-11.2,23.2-18.4
	c5.6,10.4,13.6,18.4,23.2,25.6C332,187.19,324.8,189.59,319.2,192.79z M244,15.99c44,0,80,36,80,80s-36,80-80,80s-80-36-80-80
	S200,15.99,244,15.99z M160,191.99c-5.6-3.2-12-4.8-18.4-6.4c11.2-8,20-18.4,26.4-31.2c7.2,8.8,15.2,16.8,25.6,23.2
	C181.6,179.99,169.6,184.79,160,191.99z M32,119.99c0-35.2,28.8-64,64-64c21.6,0,41.6,10.4,52.8,28c-2.4,18.4,0.8,36.8,8.8,52.8
	c-9.6,33.6-44.8,53.6-79.2,44C51.2,173.59,32,148.79,32,119.99z M16,240.79c0-22.4,21.6-40.8,48.8-40.8h62.4c7.2,0,13.6,1.6,20,4
	c-12,14.4-19.2,32.8-19.2,52v208H16V240.79z M336,463.99H144v-208c0-35.2,28.8-64,64-64h62.4c36.8,0,65.6,29.6,66.4,66.4v205.6H336z
	 M464,463.99H352v-205.6c0-20-7.2-39.2-20-53.6c6.4-2.4,13.6-4,20.8-4h62.4c27.2,0,48.8,18.4,48.8,40.8L464,463.99L464,463.99z"/>
<path d="M248,87.99c-8.8,0-16-7.2-16-16s7.2-16,16-16c8.8,0,16,7.2,16,16h16c0-14.4-9.6-27.2-24-31.2v-8.8h-16v8.8
	c-16.8,4-27.2,21.6-23.2,39.2c4,14.4,16,24,31.2,24c8.8,0,16,7.2,16,16s-7.2,16-16,16c-8.8,0-16-7.2-16-16h-16
	c0,14.4,9.6,27.2,24,31.2v8.8h16v-8.8c16.8-4,27.2-21.6,23.2-39.2C275.2,97.59,262.4,87.99,248,87.99z"/>
<g>
</g>
<g>
</g>
<g>
</g>
<g>
</g>
<g>
</g>
<g>
</g>
<g>
</g>
<g>
</g>
<g>
</g>
<g>
</g>
<g>
</g>
<g>
</g>
<g>
</g>
<g>
</g>
<g>
</g>
</svg>
