<svg height="512pt" viewBox="-11 0 512 512" width="512pt" xmlns="http://www.w3.org/2000/svg"><path d="m490.667969 394.667969c0 64.800781-52.535157 117.332031-117.335938 117.332031s-117.332031-52.53125-117.332031-117.332031 52.53125-117.335938 117.332031-117.335938 117.335938 52.535157 117.335938 117.335938zm0 0" fill="#00bcd4"/><path d="m490.667969 394.667969c0 64.800781-52.535157 117.332031-117.335938 117.332031s-117.332031-52.53125-117.332031-117.332031 52.53125-117.335938 117.332031-117.335938 117.335938 52.535157 117.335938 117.335938zm0 0" fill="#00bcd4"/><path d="m405.332031 32v216.960938c-10.238281-2.347657-20.90625-3.628907-32-3.628907-82.34375 0-149.332031 66.988281-149.332031 149.335938 0 19.410156 3.839844 37.972656 10.667969 54.824219v19.839843h-202.667969c-17.707031 0-32-14.292969-32-32v-405.332031c0-17.707031 14.292969-32 32-32h341.332031c17.707031 0 32 14.292969 32 32zm0 0" fill="#cfd8dc"/><path d="m373.332031 512c-64.703125 0-117.332031-52.628906-117.332031-117.332031 0-64.707031 52.628906-117.335938 117.332031-117.335938 64.707031 0 117.335938 52.628907 117.335938 117.335938 0 64.703125-52.628907 117.332031-117.335938 117.332031zm0-213.332031c-52.925781 0-96 43.070312-96 96 0 52.925781 43.074219 96 96 96 52.929688 0 96-43.074219 96-96 0-52.929688-43.070312-96-96-96zm0 0"/><path d="m416 405.332031h-85.332031c-5.890625 0-10.667969-4.777343-10.667969-10.664062 0-5.890625 4.777344-10.667969 10.667969-10.667969h85.332031c5.886719 0 10.667969 4.777344 10.667969 10.667969 0 5.886719-4.78125 10.664062-10.667969 10.664062zm0 0"/><path d="m373.332031 448c-5.886719 0-10.664062-4.777344-10.664062-10.667969v-85.332031c0-5.886719 4.777343-10.667969 10.664062-10.667969 5.890625 0 10.667969 4.78125 10.667969 10.667969v85.332031c0 5.890625-4.777344 10.667969-10.667969 10.667969zm0 0"/><path d="m234.667969 469.332031h-202.667969c-17.644531 0-32-14.355469-32-32v-405.332031c0-17.644531 14.355469-32 32-32h341.332031c17.644531 0 32 14.355469 32 32v213.332031c0 5.890625-4.777343 10.667969-10.664062 10.667969-5.890625 0-10.667969-4.777344-10.667969-10.667969v-213.332031c0-5.886719-4.777344-10.667969-10.667969-10.667969h-341.332031c-5.886719 0-10.667969 4.78125-10.667969 10.667969v405.332031c0 5.890625 4.78125 10.667969 10.667969 10.667969h202.667969c5.886719 0 10.664062 4.777344 10.664062 10.667969 0 5.886719-4.777343 10.664062-10.664062 10.664062zm0 0"/><path d="m74.667969 106.667969c-17.644531 0-32-14.359375-32-32 0-17.644531 14.355469-32 32-32 17.640625 0 32 14.355469 32 32 0 17.640625-14.359375 32-32 32zm0-42.667969c-5.890625 0-10.667969 4.777344-10.667969 10.667969 0 5.886719 4.777344 10.664062 10.667969 10.664062 5.886719 0 10.664062-4.777343 10.664062-10.664062 0-5.890625-4.777343-10.667969-10.664062-10.667969zm0 0"/><path d="m160 106.667969c-17.644531 0-32-14.359375-32-32 0-17.644531 14.355469-32 32-32s32 14.355469 32 32c0 17.640625-14.355469 32-32 32zm0-42.667969c-5.886719 0-10.667969 4.777344-10.667969 10.667969 0 5.886719 4.78125 10.664062 10.667969 10.664062s10.667969-4.777343 10.667969-10.664062c0-5.890625-4.78125-10.667969-10.667969-10.667969zm0 0"/><path d="m245.332031 106.667969c-17.640625 0-32-14.359375-32-32 0-17.644531 14.359375-32 32-32 17.644531 0 32 14.355469 32 32 0 17.640625-14.355469 32-32 32zm0-42.667969c-5.886719 0-10.664062 4.777344-10.664062 10.667969 0 5.886719 4.777343 10.664062 10.664062 10.664062 5.890625 0 10.667969-4.777343 10.667969-10.664062 0-5.890625-4.777344-10.667969-10.667969-10.667969zm0 0"/><path d="m330.667969 106.667969c-17.644531 0-32-14.359375-32-32 0-17.644531 14.355469-32 32-32 17.640625 0 32 14.355469 32 32 0 17.640625-14.359375 32-32 32zm0-42.667969c-5.890625 0-10.667969 4.777344-10.667969 10.667969 0 5.886719 4.777344 10.664062 10.667969 10.664062 5.886719 0 10.664062-4.777343 10.664062-10.664062 0-5.890625-4.777343-10.667969-10.664062-10.667969zm0 0"/><path d="m74.667969 64c-5.890625 0-10.667969-4.777344-10.667969-10.667969v-42.664062c0-5.890625 4.777344-10.667969 10.667969-10.667969 5.886719 0 10.664062 4.777344 10.664062 10.667969v42.664062c0 5.890625-4.777343 10.667969-10.664062 10.667969zm0 0"/><path d="m160 64c-5.886719 0-10.667969-4.777344-10.667969-10.667969v-42.664062c0-5.890625 4.78125-10.667969 10.667969-10.667969s10.667969 4.777344 10.667969 10.667969v42.664062c0 5.890625-4.78125 10.667969-10.667969 10.667969zm0 0"/><path d="m245.332031 64c-5.886719 0-10.664062-4.777344-10.664062-10.667969v-42.664062c0-5.890625 4.777343-10.667969 10.664062-10.667969 5.890625 0 10.667969 4.777344 10.667969 10.667969v42.664062c0 5.890625-4.777344 10.667969-10.667969 10.667969zm0 0"/><path d="m330.667969 64c-5.890625 0-10.667969-4.777344-10.667969-10.667969v-42.664062c0-5.890625 4.777344-10.667969 10.667969-10.667969 5.886719 0 10.664062 4.777344 10.664062 10.667969v42.664062c0 5.890625-4.777343 10.667969-10.664062 10.667969zm0 0"/></svg>